<svg width="14" height="44" viewBox="0 0 14 44" fill="none" xmlns="http://www.w3.org/2000/svg">
<path d="M13.0729 17.6825C12.552 18.0014 12.1205 18.4473 11.8189 18.9783C11.5172 19.5094 11.3552 20.1083 11.3481 20.719C11.3501 21.4064 11.5538 22.078 11.9338 22.6508C12.3138 23.2236 12.8535 23.6723 13.486 23.9413C13.2366 24.7459 12.8675 25.5084 12.3912 26.2031C11.7096 27.1843 10.9969 28.1654 9.91248 28.1654C8.82808 28.1654 8.54918 27.5354 7.29948 27.5354C6.08078 27.5354 5.64698 28.1861 4.65548 28.1861C3.66398 28.1861 2.97208 27.2772 2.17678 26.1618C1.12625 24.5993 0.548887 22.7668 0.513977 20.8842C0.513977 17.7858 2.52798 16.1437 4.51088 16.1437C5.56438 16.1437 6.44228 16.8356 7.10328 16.8356C7.73328 16.8356 8.71448 16.1023 9.91248 16.1023C10.5284 16.0864 11.1389 16.2223 11.69 16.4978C12.2411 16.7734 12.716 17.1802 13.0729 17.6825ZM9.34448 14.7907C9.87258 14.1695 10.1715 13.3859 10.1914 12.5707C10.1923 12.4633 10.1819 12.356 10.1604 12.2507C9.25323 12.3393 8.41438 12.7717 7.81588 13.4591C7.28268 14.0556 6.97248 14.8183 6.93798 15.6176C6.93838 15.7148 6.94877 15.8117 6.96898 15.9068C7.04049 15.9204 7.1131 15.9273 7.18588 15.9275C7.60395 15.8943 8.01089 15.7763 8.38197 15.5809C8.75305 15.3855 9.08052 15.1166 9.34448 14.7907Z" fill="black" fill-opacity="0.8"/>
</svg>
